<svg width="800" xmlns="http://www.w3.org/2000/svg" height="800" fill="none"><defs><clipPath id="a" class="frame-clip frame-clip-def"><rect rx="120" ry="120" width="800" height="800"/></clipPath></defs><g clip-path="url(#a)"><g class="fills"><rect width="800" height="800" class="frame-background" style="fill: rgb(24, 24, 37); fill-opacity: 1;" ry="120" rx="120"/></g><g class="frame-children"><g class="lucide lucide-moon" style="fill: rgb(0, 0, 0);"><path d="M400 145.75c-70.209 70.209-70.209 184.041 0 254.25s184.041 70.209 254.25 0c0 140.418-113.832 254.25-254.25 254.25S145.75 540.418 145.75 400 259.582 145.75 400 145.75Z" fill="none" style="fill: rgb(137, 180, 250); fill-opacity: 1;" class="fills"/><g fill="none" stroke-linejoin="round" class="strokes"><path d="M400 145.75c-70.209 70.209-70.209 184.041 0 254.25s184.041 70.209 254.25 0c0 140.418-113.832 254.25-254.25 254.25S145.75 540.418 145.75 400 259.582 145.75 400 145.75Z" style="fill: none; stroke-width: 4; stroke: rgb(137, 180, 250); stroke-opacity: 1;" class="stroke-shape"/></g></g><g class="lucide lucide-sparkle" style="fill: rgb(0, 0, 0);"><path d="M453.99 275.938a8.249 8.249 0 0 0-5.927-5.928l-25.307-6.526a2.062 2.062 0 0 1 0-3.968l25.307-6.53a8.249 8.249 0 0 0 5.927-5.924l6.526-25.306a2.062 2.062 0 0 1 3.972 0l6.522 25.306a8.249 8.249 0 0 0 5.928 5.928l25.306 6.522a2.06 2.06 0 0 1 0 3.976l-25.306 6.522a8.249 8.249 0 0 0-5.928 5.928l-6.526 25.306a2.062 2.062 0 0 1-3.972 0Z" fill="none" style="fill: none;" class="fills"/><g fill="none" stroke-linejoin="round" class="strokes"><path d="M453.99 275.938a8.249 8.249 0 0 0-5.927-5.928l-25.307-6.526a2.062 2.062 0 0 1 0-3.968l25.307-6.53a8.249 8.249 0 0 0 5.927-5.924l6.526-25.306a2.062 2.062 0 0 1 3.972 0l6.522 25.306a8.249 8.249 0 0 0 5.928 5.928l25.306 6.522a2.06 2.06 0 0 1 0 3.976l-25.306 6.522a8.249 8.249 0 0 0-5.928 5.928l-6.526 25.306a2.062 2.062 0 0 1-3.972 0Z" style="fill: none; stroke-width: 8; stroke: rgb(137, 180, 250); stroke-opacity: 1;" class="stroke-shape"/></g></g><g class="lucide lucide-sparkle" style="fill: rgb(0, 0, 0);"><path d="M538.506 371.063a7.75 7.75 0 0 0-5.568-5.569l-23.774-6.13a1.938 1.938 0 0 1 0-3.728l23.774-6.134a7.75 7.75 0 0 0 5.568-5.565l6.13-23.773a1.938 1.938 0 0 1 3.732 0l6.126 23.773a7.75 7.75 0 0 0 5.569 5.569l23.773 6.126a1.938 1.938 0 0 1 0 3.736l-23.773 6.126a7.75 7.75 0 0 0-5.569 5.569l-6.13 23.773a1.938 1.938 0 0 1-3.732 0Z" fill="none" style="fill: none;" class="fills"/><g fill="none" stroke-linejoin="round" class="strokes"><path d="M538.506 371.063a7.75 7.75 0 0 0-5.568-5.569l-23.774-6.13a1.938 1.938 0 0 1 0-3.728l23.774-6.134a7.75 7.75 0 0 0 5.568-5.565l6.13-23.773a1.938 1.938 0 0 1 3.732 0l6.126 23.773a7.75 7.75 0 0 0 5.569 5.569l23.773 6.126a1.938 1.938 0 0 1 0 3.736l-23.773 6.126a7.75 7.75 0 0 0-5.569 5.569l-6.13 23.773a1.938 1.938 0 0 1-3.732 0Z" style="fill: none; stroke-width: 8; stroke: rgb(137, 180, 250); stroke-opacity: 1;" class="stroke-shape"/></g></g><g class="lucide lucide-sparkle" style="fill: rgb(0, 0, 0);"><path d="M562.702 258.938a4.208 4.208 0 0 0-2.994-3.054l-12.781-3.362a1.06 1.06 0 0 1-.757-1.022c0-.475.309-.892.757-1.022l12.781-3.364a4.21 4.21 0 0 0 2.994-3.051l3.296-13.037a1.046 1.046 0 0 1 1.003-.777c.467 0 .877.318 1.003.777l3.294 13.037a4.208 4.208 0 0 0 2.994 3.053l12.781 3.36c.452.127.765.546.765 1.024s-.313.897-.765 1.024l-12.781 3.36a4.208 4.208 0 0 0-2.994 3.054l-3.296 13.036a1.046 1.046 0 0 1-1.003.777c-.467 0-.877-.318-1.003-.777Z" fill="none" style="fill: rgb(137, 180, 250); fill-opacity: 1;" class="fills"/><g fill="none" stroke-linejoin="round" class="strokes"><path d="M562.702 258.938a4.208 4.208 0 0 0-2.994-3.054l-12.781-3.362a1.06 1.06 0 0 1-.757-1.022c0-.475.309-.892.757-1.022l12.781-3.364a4.21 4.21 0 0 0 2.994-3.051l3.296-13.037a1.046 1.046 0 0 1 1.003-.777c.467 0 .877.318 1.003.777l3.294 13.037a4.208 4.208 0 0 0 2.994 3.053l12.781 3.36c.452.127.765.546.765 1.024s-.313.897-.765 1.024l-12.781 3.36a4.208 4.208 0 0 0-2.994 3.054l-3.296 13.036a1.046 1.046 0 0 1-1.003.777c-.467 0-.877-.318-1.003-.777Z" style="fill: none; stroke-width: 6; stroke: rgb(137, 180, 250); stroke-opacity: 1;" class="stroke-shape"/></g></g></g></g></svg>