<svg width="67" xmlns="http://www.w3.org/2000/svg" height="67" fill="none">
<style>
    @keyframes moon {
        0% {opacity: 1;}
        50% {opacity: 0.6;}
        100% {opacity: 1;}
    }
    @keyframes star {
        0% {transform:rotate(0turn)}
        100% {transform:rotate(1turn)}
    }
    .moon {animation: 0.8s moon infinite linear}
    .littleStar {animation: 1s star cubic-bezier(0.65, 0.05, 0.36, 1) infinite;transform-origin: center;transform-box: fill-box;}
    .bigStar1 {animation: 2s star cubic-bezier(0.18, 0.89, 0.04, 1.1) infinite;animation-delay:0.25s;transform-origin: center;transform-box: fill-box}
    .bigStar2 {animation: 2s star cubic-bezier(0.18, 0.89, 0.04, 1.15) infinite;animation-delay:0.5s;transform-origin: center;transform-box: fill-box}
    .moon,.littleStar,.bigStar1,.bigStar2 {transition: all 1.5s;}

</style>
<defs><clipPath id="a" class="frame-clip frame-clip-def"><rect rx="12" ry="12" width="67" height="67"/></clipPath></defs><g clip-path="url(#a)"><g class="fills"><rect width="67" height="67" class="frame-background" style="fill: rgb(24, 24, 37); fill-opacity: 0;" ry="12" rx="12"/></g><g class="frame-children"><g class="lucide lucide-moon moon" style="fill: rgb(0, 0, 0);"><path d="M33.5 8.375c-6.938 6.938-6.938 18.187 0 25.125 6.938 6.938 18.187 6.938 25.125 0 0 13.876-11.249 25.125-25.125 25.125S8.375 47.376 8.375 33.5 19.624 8.375 33.5 8.375Z" fill="none" style="fill: rgb(137, 180, 250); fill-opacity: 1;" class="fills"/><g fill="none" stroke-linejoin="round" class="strokes"><path d="M33.5 8.375c-6.938 6.938-6.938 18.187 0 25.125 6.938 6.938 18.187 6.938 25.125 0 0 13.876-11.249 25.125-25.125 25.125S8.375 47.376 8.375 33.5 19.624 8.375 33.5 8.375Z" style="fill: none; stroke-width: 0.4; stroke: rgb(137, 180, 250); stroke-opacity: 1;" class="stroke-shape"/></g></g><g class="lucide lucide-sparkle littleStar" style="fill: rgb(0, 0, 0);"><path d="M38.726 20.813a.748.748 0 0 0-.538-.539l-2.301-.594a.186.186 0 0 1-.136-.18c0-.084.055-.157.136-.18l2.301-.594a.748.748 0 0 0 .538-.538l.594-2.301a.186.186 0 0 1 .18-.137c.084 0 .158.056.181.137l.593 2.301c.068.264.274.47.539.538l2.3.593a.19.19 0 0 1 .138.181.19.19 0 0 1-.138.181l-2.3.593a.747.747 0 0 0-.539.539l-.594 2.3a.186.186 0 0 1-.18.137.188.188 0 0 1-.181-.137Z" fill="none" style="fill: none;" class="fills"/><g fill="none" stroke-linejoin="round" class="strokes"><path d="M38.726 20.813a.748.748 0 0 0-.538-.539l-2.301-.594a.186.186 0 0 1-.136-.18c0-.084.055-.157.136-.18l2.301-.594a.748.748 0 0 0 .538-.538l.594-2.301a.186.186 0 0 1 .18-.137c.084 0 .158.056.181.137l.593 2.301c.068.264.274.47.539.538l2.3.593a.19.19 0 0 1 .138.181.19.19 0 0 1-.138.181l-2.3.593a.747.747 0 0 0-.539.539l-.594 2.3a.186.186 0 0 1-.18.137.188.188 0 0 1-.181-.137Z" style="fill: none; stroke-width: 0.8; stroke: rgb(137, 180, 250); stroke-opacity: 1;" class="stroke-shape"/></g></g><g class="lucide lucide-sparkle bigStar1" style="fill: rgb(0, 0, 0);"><path d="M47.726 30.813a.748.748 0 0 0-.538-.539l-2.301-.594a.186.186 0 0 1-.136-.18c0-.084.055-.157.136-.18l2.301-.594a.748.748 0 0 0 .538-.538l.594-2.301a.186.186 0 0 1 .18-.137c.084 0 .158.056.181.137l.593 2.301c.068.264.274.47.539.538l2.3.593a.19.19 0 0 1 .138.181.19.19 0 0 1-.138.181l-2.3.593a.747.747 0 0 0-.539.539l-.594 2.3a.186.186 0 0 1-.18.137.188.188 0 0 1-.181-.137Z" fill="none" style="fill: none;" class="fills"/><g fill="none" stroke-linejoin="round" class="strokes"><path d="M47.726 30.813a.748.748 0 0 0-.538-.539l-2.301-.594a.186.186 0 0 1-.136-.18c0-.084.055-.157.136-.18l2.301-.594a.748.748 0 0 0 .538-.538l.594-2.301a.186.186 0 0 1 .18-.137c.084 0 .158.056.181.137l.593 2.301c.068.264.274.47.539.538l2.3.593a.19.19 0 0 1 .138.181.19.19 0 0 1-.138.181l-2.3.593a.747.747 0 0 0-.539.539l-.594 2.3a.186.186 0 0 1-.18.137.188.188 0 0 1-.181-.137Z" style="fill: none; stroke-width: 0.8; stroke: rgb(137, 180, 250); stroke-opacity: 1;" class="stroke-shape"/></g></g><g class="lucide lucide-sparkle bigStar2" style="fill: rgb(0, 0, 0);"><path d="M50.07 19.229a.416.416 0 0 0-.299-.299l-1.278-.33a.104.104 0 0 1 0-.2l1.278-.33a.416.416 0 0 0 .299-.299l.33-1.278a.103.103 0 0 1 .1-.076c.047 0 .088.031.1.076l.33 1.278a.416.416 0 0 0 .299.299l1.278.33a.104.104 0 0 1 .077.1.104.104 0 0 1-.077.1l-1.278.33a.416.416 0 0 0-.299.299l-.33 1.278a.103.103 0 0 1-.1.076.103.103 0 0 1-.1-.076Z" fill="none" style="fill: rgb(137, 180, 250); fill-opacity: 1;" class="fills"/><g fill="none" stroke-linejoin="round" class="strokes"><path d="M50.07 19.229a.416.416 0 0 0-.299-.299l-1.278-.33a.104.104 0 0 1 0-.2l1.278-.33a.416.416 0 0 0 .299-.299l.33-1.278a.103.103 0 0 1 .1-.076c.047 0 .088.031.1.076l.33 1.278a.416.416 0 0 0 .299.299l1.278.33a.104.104 0 0 1 .077.1.104.104 0 0 1-.077.1l-1.278.33a.416.416 0 0 0-.299.299l-.33 1.278a.103.103 0 0 1-.1.076.103.103 0 0 1-.1-.076Z" style="fill: none; stroke-width: 0.6; stroke: rgb(137, 180, 250); stroke-opacity: 1;" class="stroke-shape"/></g></g></g></g></svg>